<svg xmlns="http://www.w3.org/2000/svg" enable-background="new 0 0 25 25" viewBox="0 0 25 25" id="node-js">
  <path fill="#583689" d="M7.203,21.783c-0.467,0-0.934-0.119-1.361-0.357l-0.537-0.3c-0.482-0.269-0.655-0.878-0.386-1.36c0.269-0.482,0.878-0.654,1.36-0.386l0.536,0.299c0.356,0.198,0.673,0.06,0.791-0.01S8,19.394,8,18.981V8c0-0.553,0.447-1,1-1s1,0.447,1,1v10.981c0,1.002-0.516,1.904-1.38,2.412C8.179,21.652,7.691,21.783,7.203,21.783z"></path>
  <path fill="#583689" d="M12.502,24.999c-0.361,0-0.722-0.094-1.044-0.282L8.994,23.28c-0.477-0.278-0.638-0.891-0.36-1.368c0.279-0.477,0.893-0.636,1.368-0.36l2.465,1.438l8.991-5.205L21.5,7.293l-8.963-5.284c-0.019,0.012-0.106,0.021-0.126,0.031L3.54,7.215L3.5,17.704l2.798,1.687c0.478,0.278,0.638,0.891,0.359,1.367c-0.277,0.478-0.891,0.639-1.367,0.359l-2.757-1.608C1.896,19.139,1.5,18.446,1.5,17.704V7.293c-0.002-0.74,0.394-1.434,1.032-1.806l8.926-5.205c0.644-0.374,1.442-0.376,2.086-0.001l8.921,5.205C23.104,5.86,23.5,6.553,23.5,7.293v10.413c-0.002,0.739-0.396,1.43-1.03,1.803l-8.926,5.208C13.223,24.905,12.862,24.999,12.502,24.999z"></path>
  <path fill="#DE002A" d="M15,18c-3.084,0-5-1.245-5-3.25c0-0.553,0.447-1,1-1s1,0.447,1,1c0,0.988,1.962,1.25,3,1.25c2.299,0,3-0.292,3-1.25c0-0.458-0.797-0.697-2.487-1.099l-0.753-0.181c-0.227-0.057-0.469-0.109-0.717-0.164C12.434,12.953,10,12.418,10,10.25C10,8.245,11.916,7,15,7s5,1.245,5,3.25c0,0.553-0.447,1-1,1s-1-0.447-1-1C18,9.333,16.206,9,15,9s-3,0.333-3,1.25c0,0.56,1.488,0.887,2.473,1.104c0.266,0.059,0.524,0.115,0.768,0.176l0.733,0.177C17.953,12.175,20,12.66,20,14.75C20,18,16.496,18,15,18z"></path>
</svg>
